<?xml version="1.0" encoding="UTF-8" standalone="no"?>
<!-- Created with Inkscape (http://www.inkscape.org/) -->

<svg
   width="29.343264mm"
   height="23.083218mm"
   viewBox="0 0 29.343264 23.083219"
   version="1.1"
   id="svg1"
   xml:space="preserve"
   inkscape:version="1.4.2 (ebf0e940, 2025-05-08)"
   sodipodi:docname="psg_logo_b_pfad.svg"
   xmlns:inkscape="http://www.inkscape.org/namespaces/inkscape"
   xmlns:sodipodi="http://sodipodi.sourceforge.net/DTD/sodipodi-0.dtd"
   xmlns="http://www.w3.org/2000/svg"
   xmlns:svg="http://www.w3.org/2000/svg"><sodipodi:namedview
     id="namedview1"
     pagecolor="#ffffff"
     bordercolor="#666666"
     borderopacity="1.0"
     inkscape:showpageshadow="2"
     inkscape:pageopacity="0.0"
     inkscape:pagecheckerboard="0"
     inkscape:deskcolor="#d1d1d1"
     inkscape:document-units="mm"
     inkscape:zoom="4.2545112"
     inkscape:cx="53.82522"
     inkscape:cy="61.111603"
     inkscape:window-width="1712"
     inkscape:window-height="981"
     inkscape:window-x="0"
     inkscape:window-y="44"
     inkscape:window-maximized="1"
     inkscape:current-layer="layer1" /><defs
     id="defs1" /><g
     inkscape:label="Layer 1"
     inkscape:groupmode="layer"
     id="layer1"
     transform="translate(-31.812143,-26.977594)"><path
       style="color:#000000;fill:#000000;stroke-linecap:round;stroke-linejoin:round;-inkscape-stroke:none"
       d="m 0.81445313,1.0488281 a 0.14317904,0.14317904 0 0 0 -0.15234376,0.203125 l 0.42578123,0.90625 a 0.14316472,0.14316472 0 0 0 0.1894531,0.068359 0.14316472,0.14316472 0 0 0 0.068359,-0.1914062 L 1.0371094,1.375 l 0.068359,0.00977 c 5.586e-4,1.176e-4 0.0014,-1.203e-4 0.00195,0 0.071102,0.015391 0.1198563,0.05418 0.1699218,0.1171875 a 0.14317904,0.14317904 0 0 0 0.00195,0.00195 L 2.1054688,2.4960938 1.2578125,2.3007813 A 0.14317904,0.14317904 0 0 0 1.0878906,2.3964844 L 0.65625,3.765625 A 0.14317904,0.14317904 0 0 0 0.84765625,3.9414063 L 4.2636719,2.4746094 A 0.14317904,0.14317904 0 0 0 4.2792969,2.21875 L 3.9648438,2.0390625 A 0.14317904,0.14317904 0 0 0 3.84375,2.03125 L 3.4804688,2.1699219 A 0.14316472,0.14316472 0 0 0 3.3984375,2.3554688 0.14316472,0.14316472 0 0 0 3.5820313,2.4375 l 0.3007812,-0.1152344 0.00586,0.00391 L 1.0214844,3.5546875 1.3222656,2.609375 2.2734375,2.828125 C 2.3517347,2.846606 2.4472838,2.8211404 2.4980469,2.75 2.5492041,2.6783072 2.5392254,2.5732 2.4882813,2.5078125 a 0.14317904,0.14317904 0 0 0 -0.00195,-0.00391 L 1.5019531,1.3242187 c -0.076996,-0.0969 -0.1890752,-0.1874278 -0.3378906,-0.21875 a 0.14317904,0.14317904 0 0 0 -0.00586,-0.00195 z"
       id="path5727"
       transform="matrix(7.8580808,0,0,7.8580808,26.838592,18.874022)" /></g></svg>
